<svg width="191" height="214" viewBox="0 0 191 214" fill="none" xmlns="http://www.w3.org/2000/svg">
<g id="Group 35">
<g id="Group 30" filter="url(#filter0_f_75_586)">
<path id="Ellipse 19" d="M171.823 111C174.823 119 185.614 153.5 169.114 164.5C152.312 171.126 167.614 162.751 150.114 148C139.881 139.374 114.241 138.043 110.823 142C100.398 154.07 111.597 178.586 109.614 188.5C107.614 198.5 100.314 201 94.8233 201C89.3321 201 81.6142 199.5 78.6142 188.5C75.72 177.888 83.9918 154.07 73.5669 142C70.1825 138.082 55.1141 142 40.1141 151.5C20.6141 164.216 37.1141 167.5 21.8232 164.5C5.95278 161.386 11.8233 140 21.8232 111C27.168 95.5 48.6599 54.0472 70.924 33.5C66.3233 46 77.8233 58 87.8233 55C92.8459 51.547 97.3233 42 97.3233 25.5C97.3233 20.5 96.3233 12 96.3233 12C96.3233 12 150.073 53 171.823 111ZM73.5669 111C71.8233 121.5 73.5669 121.5 94.8233 121.5C114.323 121.5 118.823 122.5 116.08 111C110.323 95.5 94.8233 78 94.8233 78C94.8233 78 76.12 95.6253 73.5669 111Z" fill="url(#paint0_linear_75_586)"/>
<path id="Ellipse 20" d="M171.823 111C174.823 119 185.614 153.5 169.114 164.5C152.312 171.126 167.614 162.751 150.114 148C139.881 139.374 114.241 138.043 110.823 142C100.398 154.07 111.597 178.586 109.614 188.5C107.614 198.5 100.314 201 94.8233 201C89.3321 201 81.6142 199.5 78.6142 188.5C75.72 177.888 83.9918 154.07 73.5669 142C70.1825 138.082 55.1141 142 40.1141 151.5C20.6141 164.216 37.1141 167.5 21.8232 164.5C5.95278 161.386 11.8233 140 21.8232 111C27.168 95.5 48.6599 54.0472 70.924 33.5C66.3233 46 77.8233 58 87.8233 55C92.8459 51.547 97.3233 42 97.3233 25.5C97.3233 20.5 96.3233 12 96.3233 12C96.3233 12 150.073 53 171.823 111ZM73.5669 111C72.8265 115.459 72.1141 119 72.1141 121.5C75.1141 121.5 82.593 121.5 94.8233 121.5C106.806 121.5 115.114 121.5 118.114 121.5C117.614 116.5 117.114 115.5 116.08 111C112.375 94.8859 94.8233 78 94.8233 78C94.8233 78 76.12 95.6253 73.5669 111Z" fill="url(#paint1_linear_75_586)"/>
<g id="Subtract" filter="url(#filter1_d_75_586)">
<path fill-rule="evenodd" clip-rule="evenodd" d="M15.6775 130.977C10.371 149.74 9.88884 162.636 21.9375 165C29.291 166.442 29.2921 166.432 29.4807 164.618C29.6842 162.66 30.1061 158.601 40.2283 152C55.2283 142.5 70.2968 138.581 73.6812 142.5C80.3171 150.183 79.3773 162.626 78.564 173.394C78.0996 179.542 77.6765 185.143 78.7284 189C81.7284 200 89.4464 201.5 94.9375 201.5C100.429 201.5 107.728 199 109.728 189C110.428 185.5 109.486 180.181 108.432 174.233C106.5 163.329 104.192 150.309 110.938 142.5C114.355 138.543 139.995 139.874 150.228 148.5C158.66 155.607 159.477 161.234 159.939 164.417C160.435 167.839 160.522 168.433 169.228 165C179.031 158.465 179.201 143.635 177.095 130.995C142.699 122.514 139.921 122.029 105.698 122.001C103.825 122.031 101.687 122.022 99.264 122.012C98.0729 122.007 96.8127 122.001 95.4808 122C57.4612 122.008 39.8862 122.272 15.6775 130.977Z" fill="url(#paint2_linear_75_586)"/>
</g>
</g>
<g id="Group 32" filter="url(#filter2_i_75_586)">
<path id="Ellipse 19_2" d="M171.823 111C174.823 119 185.614 153.5 169.114 164.5C152.312 171.126 167.614 162.751 150.114 148C139.881 139.374 114.241 138.043 110.823 142C100.398 154.07 111.597 178.586 109.614 188.5C107.614 198.5 100.314 201 94.8233 201C89.3321 201 81.6142 199.5 78.6142 188.5C75.72 177.888 83.9918 154.07 73.5669 142C70.1825 138.082 55.1141 142 40.1141 151.5C20.6141 164.216 37.1141 167.5 21.8232 164.5C5.95278 161.386 11.8233 140 21.8232 111C27.168 95.5 48.6599 54.0472 70.924 33.5C66.3233 46 77.8233 58 87.8233 55C92.8459 51.547 97.3233 42 97.3233 25.5C97.3233 20.5 96.3233 12 96.3233 12C96.3233 12 150.073 53 171.823 111ZM73.5669 111C71.8233 121.5 73.5669 121.5 94.8233 121.5C114.323 121.5 118.823 122.5 116.08 111C110.323 95.5 94.8233 78 94.8233 78C94.8233 78 76.12 95.6253 73.5669 111Z" fill="url(#paint3_linear_75_586)"/>
<path id="Ellipse 20_2" d="M171.823 111C174.823 119 185.614 153.5 169.114 164.5C152.312 171.126 167.614 162.751 150.114 148C139.881 139.374 114.241 138.043 110.823 142C100.398 154.07 111.597 178.586 109.614 188.5C107.614 198.5 100.314 201 94.8233 201C89.3321 201 81.6142 199.5 78.6142 188.5C75.72 177.888 83.9918 154.07 73.5669 142C70.1825 138.082 55.1141 142 40.1141 151.5C20.6141 164.216 37.1141 167.5 21.8232 164.5C5.95278 161.386 11.8233 140 21.8232 111C27.168 95.5 48.6599 54.0472 70.924 33.5C66.3233 46 77.8233 58 87.8233 55C92.8459 51.547 97.3233 42 97.3233 25.5C97.3233 20.5 96.3233 12 96.3233 12C96.3233 12 150.073 53 171.823 111ZM73.5669 111C72.8265 115.459 72.1141 119 72.1141 121.5C75.1141 121.5 82.593 121.5 94.8233 121.5C106.806 121.5 115.114 121.5 118.114 121.5C117.614 116.5 117.114 115.5 116.08 111C112.375 94.8859 94.8233 78 94.8233 78C94.8233 78 76.12 95.6253 73.5669 111Z" fill="url(#paint4_linear_75_586)"/>
<g id="Subtract_2" filter="url(#filter3_d_75_586)">
<path fill-rule="evenodd" clip-rule="evenodd" d="M15.6775 130.977C10.371 149.74 9.88884 162.636 21.9375 165C29.291 166.442 29.2921 166.432 29.4807 164.618C29.6842 162.66 30.1061 158.601 40.2283 152C55.2283 142.5 70.2968 138.581 73.6812 142.5C80.3171 150.183 79.3773 162.626 78.564 173.394C78.0996 179.542 77.6765 185.143 78.7284 189C81.7284 200 89.4464 201.5 94.9375 201.5C100.429 201.5 107.728 199 109.728 189C110.428 185.5 109.486 180.181 108.432 174.233C106.5 163.329 104.192 150.309 110.938 142.5C114.355 138.543 139.995 139.874 150.228 148.5C158.66 155.607 159.477 161.234 159.939 164.417C160.435 167.839 160.522 168.433 169.228 165C179.031 158.465 179.201 143.635 177.095 130.995C142.699 122.514 139.921 122.029 105.698 122.001C103.825 122.031 101.687 122.022 99.264 122.012C98.0729 122.007 96.8127 122.001 95.4808 122C57.4612 122.008 39.8862 122.272 15.6775 130.977Z" fill="url(#paint5_linear_75_586)"/>
</g>
</g>
</g>
<defs>
<filter id="filter0_f_75_586" x="0" y="0" width="190.178" height="213.5" filterUnits="userSpaceOnUse" color-interpolation-filters="sRGB">
<feFlood flood-opacity="0" result="BackgroundImageFix"/>
<feBlend mode="normal" in="SourceGraphic" in2="BackgroundImageFix" result="shape"/>
<feGaussianBlur stdDeviation="6" result="effect1_foregroundBlur_75_586"/>
</filter>
<filter id="filter1_d_75_586" x="2.11426" y="110" width="186.064" height="99.4998" filterUnits="userSpaceOnUse" color-interpolation-filters="sRGB">
<feFlood flood-opacity="0" result="BackgroundImageFix"/>
<feColorMatrix in="SourceAlpha" type="matrix" values="0 0 0 0 0 0 0 0 0 0 0 0 0 0 0 0 0 0 127 0" result="hardAlpha"/>
<feOffset dy="-2"/>
<feGaussianBlur stdDeviation="5"/>
<feComposite in2="hardAlpha" operator="out"/>
<feColorMatrix type="matrix" values="0 0 0 0 0 0 0 0 0 0 0 0 0 0 0 0 0 0 0.35 0"/>
<feBlend mode="normal" in2="BackgroundImageFix" result="effect1_dropShadow_75_586"/>
<feBlend mode="normal" in="SourceGraphic" in2="effect1_dropShadow_75_586" result="shape"/>
</filter>
<filter id="filter2_i_75_586" x="10" y="12" width="168.178" height="190.5" filterUnits="userSpaceOnUse" color-interpolation-filters="sRGB">
<feFlood flood-opacity="0" result="BackgroundImageFix"/>
<feBlend mode="normal" in="SourceGraphic" in2="BackgroundImageFix" result="shape"/>
<feColorMatrix in="SourceAlpha" type="matrix" values="0 0 0 0 0 0 0 0 0 0 0 0 0 0 0 0 0 0 127 0" result="hardAlpha"/>
<feOffset dx="-2" dy="1"/>
<feGaussianBlur stdDeviation="1"/>
<feComposite in2="hardAlpha" operator="arithmetic" k2="-1" k3="1"/>
<feColorMatrix type="matrix" values="0 0 0 0 1 0 0 0 0 1 0 0 0 0 1 0 0 0 1 0"/>
<feBlend mode="normal" in2="shape" result="effect1_innerShadow_75_586"/>
</filter>
<filter id="filter3_d_75_586" x="6.11426" y="114" width="178.064" height="91.4998" filterUnits="userSpaceOnUse" color-interpolation-filters="sRGB">
<feFlood flood-opacity="0" result="BackgroundImageFix"/>
<feColorMatrix in="SourceAlpha" type="matrix" values="0 0 0 0 0 0 0 0 0 0 0 0 0 0 0 0 0 0 127 0" result="hardAlpha"/>
<feOffset dy="-2"/>
<feGaussianBlur stdDeviation="3"/>
<feComposite in2="hardAlpha" operator="out"/>
<feColorMatrix type="matrix" values="0 0 0 0 1 0 0 0 0 0.85098 0 0 0 0 0.854902 0 0 0 1 0"/>
<feBlend mode="normal" in2="BackgroundImageFix" result="effect1_dropShadow_75_586"/>
<feBlend mode="normal" in="SourceGraphic" in2="effect1_dropShadow_75_586" result="shape"/>
</filter>
<linearGradient id="paint0_linear_75_586" x1="96.4437" y1="12" x2="96.4437" y2="187.15" gradientUnits="userSpaceOnUse">
<stop stop-color="#FC99C5"/>
<stop offset="0.25" stop-color="#FC6791"/>
<stop offset="0.5" stop-color="#FB4F4F"/>
<stop offset="0.75" stop-color="#FF6501"/>
<stop offset="1" stop-color="#FF6501"/>
</linearGradient>
<linearGradient id="paint1_linear_75_586" x1="96.4437" y1="12" x2="96.4437" y2="187.15" gradientUnits="userSpaceOnUse">
<stop stop-color="#FC99C5"/>
<stop offset="0.25" stop-color="#FC6791"/>
<stop offset="0.5" stop-color="#FB4F4F"/>
<stop offset="0.75" stop-color="#FF6501"/>
<stop offset="1" stop-color="#FF6501"/>
</linearGradient>
<linearGradient id="paint2_linear_75_586" x1="96.5579" y1="12.4997" x2="96.5579" y2="187.65" gradientUnits="userSpaceOnUse">
<stop stop-color="#FC99C5"/>
<stop offset="0.25" stop-color="#FC6791"/>
<stop offset="0.5" stop-color="#FB4F4F"/>
<stop offset="0.75" stop-color="#FF6501"/>
<stop offset="1" stop-color="#FF6501"/>
</linearGradient>
<linearGradient id="paint3_linear_75_586" x1="96.4437" y1="12" x2="96.4437" y2="187.15" gradientUnits="userSpaceOnUse">
<stop stop-color="#FC99C5"/>
<stop offset="0.25" stop-color="#FC6791"/>
<stop offset="0.5" stop-color="#FB4F4F"/>
<stop offset="0.75" stop-color="#FF6501"/>
<stop offset="1" stop-color="#FF6501"/>
</linearGradient>
<linearGradient id="paint4_linear_75_586" x1="96.4437" y1="12" x2="96.4437" y2="187.15" gradientUnits="userSpaceOnUse">
<stop stop-color="#FC99C5"/>
<stop offset="0.25" stop-color="#FC6791"/>
<stop offset="0.5" stop-color="#FB4F4F"/>
<stop offset="0.75" stop-color="#FF6501"/>
<stop offset="1" stop-color="#FF6501"/>
</linearGradient>
<linearGradient id="paint5_linear_75_586" x1="96.5579" y1="12.4997" x2="96.5579" y2="187.65" gradientUnits="userSpaceOnUse">
<stop stop-color="#FC99C5"/>
<stop offset="0.25" stop-color="#FC6791"/>
<stop offset="0.5" stop-color="#FB4F4F"/>
<stop offset="0.75" stop-color="#FF6501"/>
<stop offset="1" stop-color="#FF6501"/>
</linearGradient>
</defs>
</svg>
